<svg xmlns="http://www.w3.org/2000/svg" width="35.845" height="35.86" viewBox="0 0 35.845 35.86">
  <path id="fi-tr-basket-shopping-simple" d="M34.934,13.223a3.73,3.73,0,0,0-2.809-1.27h-.837a13.44,13.44,0,0,0-26.716,0H3.735a3.73,3.73,0,0,0-2.809,1.27,3.79,3.79,0,0,0-.9,2.958L1.7,28.733A8.241,8.241,0,0,0,9.846,35.86H26a8.23,8.23,0,0,0,8.143-7.127l1.673-12.551a3.751,3.751,0,0,0-.9-2.958Zm-17-11.729A11.97,11.97,0,0,1,29.794,11.953H6.066A11.948,11.948,0,0,1,17.93,1.494ZM34.351,15.988,32.677,28.539a6.745,6.745,0,0,1-6.664,5.842H9.846a6.745,6.745,0,0,1-6.664-5.842L1.509,15.988a2.242,2.242,0,0,1,2.226-2.54H32.125a2.29,2.29,0,0,1,1.688.762A2.2,2.2,0,0,1,34.351,15.988Z" transform="translate(0)"/>
</svg>
