<svg id="Group_9" data-name="Group 9" xmlns="http://www.w3.org/2000/svg" width="57.906" height="57.906" viewBox="0 0 57.906 57.906">
  <path id="Path_12" data-name="Path 12" d="M42.232,0H15.675A15.692,15.692,0,0,0,0,15.675V42.231A15.692,15.692,0,0,0,15.675,57.906H42.232A15.692,15.692,0,0,0,57.906,42.231V15.675A15.692,15.692,0,0,0,42.232,0ZM54.511,42.231a12.294,12.294,0,0,1-12.279,12.28H15.675a12.294,12.294,0,0,1-12.28-12.28V15.675a12.294,12.294,0,0,1,12.28-12.28H42.232a12.294,12.294,0,0,1,12.279,12.28Zm0,0" fill="#fff"/>
  <path id="Path_13" data-name="Path 13" d="M124.964,162.064q2.789-1.214,2.789-5.218,0-5.775-6.6-5.775h-6.333a2.359,2.359,0,0,0-1.313.361,1.117,1.117,0,0,0-.558.984v21.33a1.134,1.134,0,0,0,.525.919,2.181,2.181,0,0,0,1.345.394h6.957a6.734,6.734,0,0,0,4.791-1.657q1.772-1.657,1.772-5.3v-.689a6,6,0,0,0-.854-3.495A5.432,5.432,0,0,0,124.964,162.064Zm-7.778-7.252h3.643a2.573,2.573,0,0,1,1.953.738,2.8,2.8,0,0,1,.706,2.018,3,3,0,0,1-.673,2.068,2.478,2.478,0,0,1-1.952.755h-3.676Zm6.891,12.929q0,3.577-3.183,3.577h-3.708v-7.581h3.708a3.19,3.19,0,0,1,2.379.82,3.7,3.7,0,0,1,.8,2.658Zm0,0" transform="translate(-100.178 -133.985)" fill="#fff"/>
  <path id="Path_14" data-name="Path 14" d="M296.2,232.7a7.706,7.706,0,0,0,1.116-.065,3.129,3.129,0,0,0,.935-.325,1.6,1.6,0,0,0,.755-.894,4.481,4.481,0,0,0,.247-1.609,5.681,5.681,0,0,0-1.985-4.434,6.945,6.945,0,0,0-4.775-1.764,7.236,7.236,0,0,0-5.087,1.936,6.082,6.082,0,0,0-2.1,4.627v2.789a6.045,6.045,0,0,0,2.215,4.873,8.62,8.62,0,0,0,5.726,1.854,8.521,8.521,0,0,0,4.118-.9q1.657-.9,1.658-1.821a2.127,2.127,0,0,0-.459-1.23,1.371,1.371,0,0,0-1.149-.64,4.956,4.956,0,0,0-1.575.624,5.335,5.335,0,0,1-2.461.623,4.233,4.233,0,0,1-2.789-.869,2.816,2.816,0,0,1-1.05-2.281V232.7Zm-6.662-3.352a2.083,2.083,0,0,1,.853-1.731,3.413,3.413,0,0,1,4.053.015,2.142,2.142,0,0,1,.837,1.747.811.811,0,0,1-.213.659,1.22,1.22,0,0,1-.738.169h-4.791Zm0,0" transform="translate(-253.037 -198.316)" fill="#fff"/>
  <path id="Path_15" data-name="Path 15" d="M297.822,177.863H287.206a1.7,1.7,0,1,0,0,3.4h10.616a1.7,1.7,0,1,0,0-3.4Zm0,0" transform="translate(-253.218 -157.747)" fill="#fff"/>
</svg>
