<svg id="Group_8" data-name="Group 8" xmlns="http://www.w3.org/2000/svg" width="57.906" height="57.906" viewBox="0 0 57.906 57.906">
  <path id="Path_9" data-name="Path 9" d="M42.231,0H15.675A15.692,15.692,0,0,0,0,15.675V42.232A15.692,15.692,0,0,0,15.675,57.906H42.232A15.692,15.692,0,0,0,57.906,42.232V15.675A15.692,15.692,0,0,0,42.231,0Zm12.28,42.232a12.294,12.294,0,0,1-12.28,12.28H15.675a12.294,12.294,0,0,1-12.28-12.28V15.675a12.294,12.294,0,0,1,12.28-12.28H42.232a12.294,12.294,0,0,1,12.28,12.28Zm0,0" fill="#fff"/>
  <path id="Path_10" data-name="Path 10" d="M131.837,116a15.833,15.833,0,1,0,15.833,15.833A15.851,15.851,0,0,0,131.837,116Zm0,28.272a12.439,12.439,0,1,1,12.439-12.439A12.453,12.453,0,0,1,131.837,144.276Zm0,0" transform="translate(-102.884 -102.884)" fill="#fff"/>
  <path id="Path_11" data-name="Path 11" d="M362.655,66.285a4.679,4.679,0,1,0,4.679,4.679A4.684,4.684,0,0,0,362.655,66.285Zm0,5.962a1.284,1.284,0,1,1,1.284-1.284A1.285,1.285,0,0,1,362.655,72.248Zm0,0" transform="translate(-317.49 -58.788)" fill="#fff"/>
</svg>
