<?xml version="1.0" encoding="UTF-8"?>
<svg id="Layer_1" data-name="Layer 1" xmlns="http://www.w3.org/2000/svg" viewBox="0 0 412 412">
  <path d="m206,0C92.23,0,0,92.23,0,206s92.23,206,206,206,206-92.23,206-206S319.77,0,206,0Zm3.07,384c-98.15,0-178-79.85-178-178S110.93,28,209.07,28c22.01,0,39.85,17.84,39.85,39.85s-17.84,39.85-39.85,39.85c-54.2,0-98.3,44.1-98.3,98.3s44.1,98.3,98.3,98.3c22.01,0,39.85,17.84,39.85,39.85s-17.84,39.85-39.85,39.85Zm-3.07-122c-30.93,0-56-25.07-56-56s25.07-56,56-56,56,25.07,56,56-25.07,56-56,56Z"/>
</svg>